<?xml version="1.0" encoding="utf-8"?>
<!-- Generator: Adobe Illustrator 27.2.0, SVG Export Plug-In . SVG Version: 6.00 Build 0)  -->
<svg version="1.1" id="Layer_1" xmlns="http://www.w3.org/2000/svg" xmlns:xlink="http://www.w3.org/1999/xlink" x="0px" y="0px"
	 viewBox="0 0 151 28.6" style="enable-background:new 0 0 151 28.6;" xml:space="preserve">
<style type="text/css">
	.st0{fill:#B3B3B3;}
</style>
<g>
	<rect x="18.5" y="12.1" class="st0" width="4.4" height="4.4"/>
	<rect x="4.5" y="19.1" class="st0" width="4.4" height="4.4"/>
	<rect x="4.5" y="5.1" class="st0" width="4.4" height="4.4"/>
	<rect x="4.5" y="12.1" class="st0" width="4.4" height="4.4"/>
	<rect x="18.5" y="19.1" class="st0" width="4.4" height="4.4"/>
	<rect x="11.5" y="19.1" class="st0" width="4.4" height="4.4"/>
	<rect x="11.5" y="5.1" class="st0" width="4.4" height="4.4"/>
	<rect x="11.5" y="12.1" class="st0" width="4.4" height="4.4"/>
	<rect x="18.5" y="5.1" class="st0" width="4.4" height="4.4"/>
	<path class="st0" d="M0.7,28h26c0.4,0,0.8-0.3,0.8-0.8V1.3c0-0.4-0.3-0.8-0.8-0.8h-26C0.3,0.5,0,0.9,0,1.3v26C0,27.7,0.3,28,0.7,28
		z M1.5,2H26v24.5H1.5V2z"/>
	<path class="st0" d="M41.7,28h26c0.4,0,0.8-0.3,0.8-0.8V1.3c0-0.4-0.3-0.8-0.8-0.8h-26c-0.4,0-0.7,0.4-0.7,0.8v26
		C41,27.7,41.3,28,41.7,28z M42.5,2H67v24.5H42.5V2z"/>
	<rect x="49.9" y="15" class="st0" width="4.1" height="9.6"/>
	<rect x="55.5" y="15" class="st0" width="4.1" height="4.1"/>
	<rect x="61" y="15" class="st0" width="4.1" height="4.1"/>
	<rect x="61" y="9.5" class="st0" width="4.1" height="4.1"/>
	<rect x="44.4" y="15" class="st0" width="4.1" height="9.6"/>
	<rect x="61" y="20.6" class="st0" width="4.1" height="4.1"/>
	<rect x="55.5" y="20.6" class="st0" width="4.1" height="4.1"/>
	<rect x="55.5" y="3.9" class="st0" width="4.1" height="4.1"/>
	<rect x="44.4" y="3.9" class="st0" width="9.6" height="9.6"/>
	<rect x="61" y="3.9" class="st0" width="4.1" height="4.1"/>
	<rect x="55.5" y="9.5" class="st0" width="4.1" height="4.1"/>
	<path class="st0" d="M82.7,28h26c0.4,0,0.8-0.3,0.8-0.8V1.3c0-0.4-0.3-0.8-0.8-0.8h-26c-0.4,0-0.7,0.4-0.7,0.8v26
		C82,27.7,82.3,28,82.7,28z M83.5,2H108v24.5H83.5V2z"/>
	<rect x="102" y="15" class="st0" width="4.1" height="4.1"/>
	<rect x="96.5" y="3.9" class="st0" width="9.6" height="4.1"/>
	<rect x="96.5" y="9.5" class="st0" width="9.6" height="4.1"/>
	<rect x="90.9" y="20.6" class="st0" width="4.1" height="4.1"/>
	<rect x="85.4" y="3.9" class="st0" width="9.6" height="9.6"/>
	<rect x="85.4" y="20.6" class="st0" width="4.1" height="4.1"/>
	<rect x="96.5" y="20.6" class="st0" width="4.1" height="4.1"/>
	<rect x="96.5" y="15" class="st0" width="4.1" height="4.1"/>
	<rect x="90.9" y="15" class="st0" width="4.1" height="4.1"/>
	<rect x="102" y="20.6" class="st0" width="4.1" height="4.1"/>
	<rect x="85.4" y="15" class="st0" width="4.1" height="4.1"/>
	<path class="st0" d="M129.8,27.4c2.3,0.8,4.9,1.2,7.7,1.2c4,0,7.2-0.7,9.6-2.1c2.6-1.5,3.9-3.6,3.9-6.3c0-3.3-2-5.9-6.1-7.7
		c-1.5-0.7-3.5-1.3-5.8-1.9c-2.7-0.7-3.9-1.2-4.5-1.5s-0.7-0.6-0.7-0.7c0-0.1,0-0.4,0.6-0.8c0.6-0.4,1.5-0.6,2.7-0.6
		c1.1,0,2,0.2,2.6,0.6c0.5,0.3,0.7,0.8,0.7,1.4c0,0.7,0.6,1.2,1.2,1.2h7.9c0.7,0,1.2-0.6,1.2-1.2c0-1.8-0.6-3.5-1.9-4.9
		c-1.2-1.4-2.8-2.4-4.9-3.1c-2-0.7-4.3-1-6.8-1s-4.9,0.3-6.9,0.9c-2.1,0.7-3.8,1.6-5,2.8c-1.3,1.3-2,2.9-2,4.6c0,3.4,2.4,6,7.2,7.8
		c1.3,0.5,3.1,1,5.2,1.6c2.4,0.6,3.5,1.1,4,1.4s0.6,0.6,0.6,1c0,0.3-0.1,0.5-0.5,0.7c-0.6,0.3-1.4,0.5-2.5,0.5
		c-2.2,0-3.3-0.4-3.7-0.7s-0.8-0.7-0.8-2c0-0.7-0.6-1.2-1.2-1.2h-8c-0.7,0-1.2,0.6-1.2,1.2c0,2,0.7,3.7,1.9,5.2
		C125.6,25.4,127.5,26.6,129.8,27.4z M131.4,19c0.1,1.3,0.5,2.3,1.5,3s2.5,1,4.6,1c1.4,0,2.4-0.2,3.2-0.7s1.3-1.2,1.3-2.1
		c0-1-0.5-1.8-1.4-2.3s-2.3-1-4.4-1.6c-2.1-0.5-3.7-1-5-1.5c-4.1-1.6-6.2-3.7-6.2-6.4c0-1.3,0.5-2.5,1.5-3.5s2.5-1.9,4.4-2.4
		c1.9-0.6,4.1-0.9,6.5-0.9c2.3,0,4.5,0.3,6.3,1c1.8,0.6,3.3,1.5,4.3,2.7c0.9,1.1,1.4,2.3,1.5,3.7H142c-0.1-1-0.5-1.8-1.3-2.4
		c-0.9-0.6-2-0.9-3.5-0.9s-2.6,0.3-3.5,0.8s-1.4,1.2-1.4,2c0,0.7,0.5,1.4,1.5,2c0.9,0.5,2.5,1.1,4.8,1.7c2.3,0.6,4.1,1.2,5.6,1.8
		c3.4,1.5,5.2,3.6,5.2,6.3c0,2.1-1,3.8-3.1,5s-5.1,1.9-8.8,1.9c-2.6,0-5-0.4-7.2-1.1c-2.1-0.7-3.7-1.7-4.8-2.9c-1-1.2-1.5-2.5-1.6-4
		h7.5V19z"/>
	<path class="st0" d="M146.1,23.2c0.9,0,1.7-0.7,1.7-1.7c0-0.9-0.7-1.7-1.7-1.7s-1.7,0.7-1.7,1.7C144.5,22.4,145.2,23.2,146.1,23.2z
		"/>
	<path class="st0" d="M137.3,5c0.8,0,1.4-0.6,1.4-1.4s-0.6-1.4-1.4-1.4c-0.8,0-1.4,0.6-1.4,1.4S136.5,5,137.3,5z"/>
	<path class="st0" d="M130.8,3.7c-0.9,0-1.7,0.7-1.7,1.7s0.7,1.7,1.7,1.7s1.7-0.7,1.7-1.7S131.7,3.7,130.8,3.7z"/>
	<circle class="st0" cx="135.7" cy="13.8" r="1.7"/>
	<path class="st0" d="M134.8,26.2c0.7,0,1.3-0.6,1.3-1.3c0-0.7-0.6-1.3-1.3-1.3s-1.3,0.6-1.3,1.3C133.5,25.6,134,26.2,134.8,26.2z"
		/>
	<path class="st0" d="M141.2,25.8c0.8,0,1.4-0.6,1.4-1.4S142,23,141.2,23c-0.8,0-1.4,0.6-1.4,1.4C139.7,25.1,140.4,25.8,141.2,25.8z
		"/>
	<circle class="st0" cx="142.8" cy="15.9" r="1.7"/>
	<path class="st0" d="M144.5,8c1.1,0,1.9-0.9,1.9-1.9s-0.9-1.9-1.9-1.9c-1.1,0-1.9,0.9-1.9,1.9S143.4,8,144.5,8z"/>
	<path class="st0" d="M128.9,9.2c-0.8,0-1.4,0.6-1.4,1.4s0.6,1.4,1.4,1.4c0.8,0,1.4-0.6,1.4-1.4S129.7,9.2,128.9,9.2z"/>
	<path class="st0" d="M128.7,23.8c1.1,0,2-0.9,2-2c0-1.1-0.9-2-2-2s-2,0.9-2,2C126.7,22.9,127.6,23.8,128.7,23.8z"/>
</g>
</svg>
