<?xml version="1.0" encoding="utf-8"?>
<!-- Generator: Adobe Illustrator 27.2.0, SVG Export Plug-In . SVG Version: 6.00 Build 0)  -->
<svg version="1.1" id="Layer_1" xmlns="http://www.w3.org/2000/svg" xmlns:xlink="http://www.w3.org/1999/xlink" x="0px" y="0px"
	 viewBox="0 0 153.1 30" style="enable-background:new 0 0 153.1 30;" xml:space="preserve">
<style type="text/css">
	.st0{fill:#B3B3B3;}
</style>
<g>
	<path class="st0" d="M91.4,29.6c0.1,0.2,0.4,0.4,0.6,0.4h16.5c0.3,0,0.5-0.1,0.6-0.4l8.2-14.2c0.1-0.2,0.1-0.5,0-0.8l-8.2-14.2
		c0-0.3-0.3-0.4-0.5-0.4H92.1c-0.3,0-0.5,0.1-0.6,0.4l-8.2,14.2c-0.1,0.2-0.1,0.5,0,0.8L91.4,29.6z M92.5,1.5h15.6l7.8,13.5
		l-7.8,13.5H92.5L84.7,15L92.5,1.5z"/>
	<path class="st0" d="M135,21.1c0-1.3-1.1-2.4-2.4-2.4c-1.3,0-2.4,1.1-2.4,2.4s1.1,2.4,2.4,2.4C133.9,23.4,135,22.4,135,21.1z"/>
	<path class="st0" d="M140,14.2c-1.1,0-2,0.9-2,2s0.9,2,2,2s2-0.9,2-2S141.1,14.2,140,14.2z"/>
	<path class="st0" d="M138.2,6.6c0.8,0,1.5-0.7,1.5-1.5s-0.7-1.5-1.5-1.5s-1.5,0.7-1.5,1.5C136.7,6,137.3,6.6,138.2,6.6z"/>
	<path class="st0" d="M134.5,9.1c0,0.9,0.8,1.7,1.7,1.7s1.7-0.8,1.7-1.7s-0.8-1.7-1.7-1.7C135.2,7.4,134.5,8.2,134.5,9.1z"/>
	<path class="st0" d="M137,14.5c0-1.1-0.9-2-2-2s-2,0.9-2,2s0.9,2,2,2S137,15.6,137,14.5z"/>
	<path class="st0" d="M144.7,16.9c0.9,0,1.7-0.8,1.7-1.7c0-0.9-0.8-1.7-1.7-1.7s-1.7,0.8-1.7,1.7C143,16.1,143.7,16.9,144.7,16.9z"
		/>
	<path class="st0" d="M140.7,23.5c-0.5,0-1,0.4-1,1s0.4,1,1,1c0.5,0,1-0.4,1-1S141.2,23.5,140.7,23.5z"/>
	<path class="st0" d="M137.6,24.5c-0.5,0-1,0.4-1,1s0.4,1,1,1c0.5,0,1-0.4,1-1S138.1,24.5,137.6,24.5z"/>
	<path class="st0" d="M134.6,24.3c-0.4,0-0.7,0.3-0.7,0.7c0,0.4,0.3,0.7,0.7,0.7s0.7-0.3,0.7-0.7C135.3,24.6,135,24.3,134.6,24.3z"
		/>
	<path class="st0" d="M129.2,19.7c0-0.4-0.3-0.7-0.7-0.7s-0.7,0.3-0.7,0.7c0,0.4,0.3,0.7,0.7,0.7S129.2,20.1,129.2,19.7z"/>
	<path class="st0" d="M127.6,14.1c0.4,0,0.7-0.3,0.7-0.7s-0.3-0.7-0.7-0.7s-0.7,0.3-0.7,0.7S127.2,14.1,127.6,14.1z"/>
	<path class="st0" d="M141.7,5.8c0.4,0,0.7-0.3,0.7-0.7c0-0.4-0.3-0.7-0.7-0.7S141,4.7,141,5.1C141,5.5,141.4,5.8,141.7,5.8z"/>
	<path class="st0" d="M146.3,8.5c0.4,0,0.7-0.3,0.7-0.7c0-0.4-0.3-0.7-0.7-0.7s-0.7,0.3-0.7,0.7S145.9,8.5,146.3,8.5z"/>
	<path class="st0" d="M131.8,8.1c0.4,0,0.7-0.3,0.7-0.7c0-0.4-0.3-0.7-0.7-0.7s-0.7,0.3-0.7,0.7S131.4,8.1,131.8,8.1z"/>
	<path class="st0" d="M143.5,19.2c0-0.4-0.3-0.7-0.7-0.7s-0.7,0.3-0.7,0.7c0,0.4,0.3,0.7,0.7,0.7C143.2,19.9,143.5,19.6,143.5,19.2z
		"/>
	<path class="st0" d="M148.2,16.8c-0.4,0-0.7,0.3-0.7,0.7c0,0.4,0.3,0.7,0.7,0.7s0.7-0.3,0.7-0.7C148.8,17.1,148.5,16.8,148.2,16.8z
		"/>
	<path class="st0" d="M146.8,20.7c-0.4,0-0.7,0.3-0.7,0.7c0,0.4,0.3,0.7,0.7,0.7s0.7-0.3,0.7-0.7C147.4,21,147.1,20.7,146.8,20.7z"
		/>
	<path class="st0" d="M143.9,21.8c-0.5,0-1,0.4-1,1s0.4,1,1,1c0.5,0,1-0.4,1-1S144.5,21.8,143.9,21.8z"/>
	<path class="st0" d="M147.6,14.4c0,0.5,0.4,1,1,1c0.5,0,1-0.4,1-1s-0.4-1-1-1C148,13.5,147.6,13.9,147.6,14.4z"/>
	<path class="st0" d="M131.6,10.7c0,0.5,0.4,1,1,1c0.5,0,1-0.4,1-1c0-0.5-0.4-1-1-1C132.1,9.7,131.6,10.1,131.6,10.7z"/>
	<path class="st0" d="M128.5,16.4c0-0.5-0.4-1-1-1c-0.5,0-1,0.4-1,1s0.4,1,1,1C128.1,17.3,128.5,16.9,128.5,16.4z"/>
	<path class="st0" d="M129.4,10.5c0.7,0,1.2-0.5,1.2-1.2s-0.5-1.2-1.2-1.2s-1.2,0.5-1.2,1.2S128.7,10.5,129.4,10.5z"/>
	<path class="st0" d="M131.6,16.4c0-0.5-0.4-1-1-1c-0.5,0-1,0.4-1,1s0.4,1,1,1C131.2,17.3,131.6,16.9,131.6,16.4z"/>
	<path class="st0" d="M137.8,22.2c0-0.5-0.4-1-1-1s-1,0.4-1,1s0.4,1,1,1S137.8,22.7,137.8,22.2z"/>
	<path class="st0" d="M130.4,13.9c0.5,0,1-0.4,1-1s-0.4-1-1-1c-0.5,0-1,0.4-1,1S129.9,13.9,130.4,13.9z"/>
	<path class="st0" d="M145.8,11.2c0,0.7,0.6,1.3,1.3,1.3s1.3-0.6,1.3-1.3s-0.6-1.3-1.3-1.3S145.8,10.4,145.8,11.2z"/>
	<path class="st0" d="M134.4,6.1c0.5,0,1-0.4,1-1c0-0.5-0.4-1-1-1c-0.5,0-1,0.4-1,1C133.4,5.6,133.8,6.1,134.4,6.1z"/>
	<path class="st0" d="M137.4,18.9c0-0.5-0.4-1-1-1c-0.5,0-1,0.4-1,1s0.4,1,1,1C137,19.8,137.4,19.4,137.4,18.9z"/>
	<path class="st0" d="M140.8,20.5c-0.5,0-1,0.4-1,1c0,0.5,0.4,1,1,1s1-0.4,1-1S141.4,20.5,140.8,20.5z"/>
	<path class="st0" d="M146.6,19.1c0-0.5-0.4-1-1-1c-0.5,0-1,0.4-1,1c0,0.5,0.4,1,1,1C146.2,20,146.6,19.6,146.6,19.1z"/>
	<path class="st0" d="M142,12.6c1.6,0,2.9-1.3,2.9-2.9s-1.3-2.9-2.9-2.9s-2.9,1.4-2.9,3C139.1,11.3,140.4,12.6,142,12.6z"/>
	<path class="st0" d="M138.1,30c8.3,0,15-6.7,15-15s-6.7-15-15-15s-15,6.7-15,15S129.8,30,138.1,30z M138.1,1.5
		c7.4,0,13.5,6.1,13.5,13.5s-6.1,13.5-13.5,13.5s-13.5-6.1-13.5-13.5S130.6,1.5,138.1,1.5z"/>
	<path class="st0" d="M7.5,19.2l-1.7,9.9c0,0.3,0.1,0.6,0.3,0.7C6.4,30,6.7,30,6.9,29.9l8.9-4.7l8.9,4.7C24.9,30,25,30,25.1,30
		c0.2,0,0.3,0,0.4-0.1c0.2-0.2,0.3-0.5,0.3-0.7l-1.7-10l7.2-7c0.2-0.2,0.3-0.5,0.2-0.8c-0.1-0.3-0.3-0.5-0.6-0.5l-10-1.4l-4.5-9
		c-0.3-0.5-1.1-0.5-1.3,0l-4.5,9l-10,1.4c-0.3,0-0.5,0.2-0.6,0.5s0,0.6,0.2,0.8L7.5,19.2z M11.3,10.9c0.2,0,0.5-0.2,0.6-0.4l4-8l4,8
		c0.1,0.2,0.3,0.4,0.6,0.4l8.8,1.3l-6.4,6.2c-0.2,0.2-0.3,0.4-0.2,0.7l1.5,8.8l-7.9-4.2c-0.1-0.1-0.2-0.1-0.3-0.1
		c-0.1,0-0.2,0-0.3,0.1l-7.9,4.2l1.3-8.8c0-0.2,0-0.5-0.2-0.7l-6.4-6.2L11.3,10.9z"/>
	<path class="st0" d="M67.4,30h8.8c0.4,0,0.8-0.3,0.8-0.8V0.8C77,0.4,76.7,0,76.2,0h-8.8c-0.4,0-0.8,0.3-0.8,0.8v28.5
		C66.6,29.7,66.9,30,67.4,30z M68.1,1.5h7.3v27h-7.3V1.5z"/>
	<path class="st0" d="M57.2,20.1c0-1.5-0.8-3.4-4.9-3.4h-4.5c-0.4,0-0.8,0.3-0.8,0.8v5.6c0,0.4,0.3,0.8,0.8,0.8h4.5
		C56.3,23.9,57.2,21.8,57.2,20.1z M48.5,18.3h3.8c3.4,0,3.4,1.4,3.4,1.9c0,1-0.4,2.2-3.4,2.2h-3.8V18.3z"/>
	<path class="st0" d="M39,30h15.1c3.7,0,6.6-0.8,8.7-2.2c2.1-1.5,3.2-3.8,3.2-6.6c0-3.5-1.2-6-3.4-7.7c-2.2-1.6-5.6-2.4-10-2.4h-4
		V0.8c0-0.4-0.3-0.8-0.8-0.8H39c-0.4,0-0.8,0.3-0.8,0.8v28.5C38.2,29.7,38.6,30,39,30z M39.7,1.5H47v10.2c0,0.4,0.3,0.8,0.8,0.8h4.7
		c4.1,0,7.2,0.7,9.2,2.1c1.9,1.4,2.8,3.5,2.8,6.5c0,2.4-0.8,4.2-2.6,5.4c-1.8,1.3-4.4,1.9-7.8,1.9H39.7V1.5z"/>
	<path class="st0" d="M101.1,11.6c1.3,0,2.4-1.1,2.4-2.4s-1.1-2.4-2.4-2.4s-2.4,1.1-2.4,2.4C98.7,10.6,99.8,11.6,101.1,11.6z"/>
	<path class="st0" d="M95.4,8.4c1.1,0,2-0.9,2-2s-0.9-2-2-2s-2,0.9-2,2S94.3,8.4,95.4,8.4z"/>
	<path class="st0" d="M102.5,21.2c-0.9,0-1.7,0.8-1.7,1.7s0.8,1.7,1.7,1.7s1.7-0.8,1.7-1.7S103.4,21.2,102.5,21.2z"/>
	<path class="st0" d="M94.2,14.1c1.1,0,2-0.9,2-2s-0.9-2-2-2s-2,0.9-2,2S93.1,14.1,94.2,14.1z"/>
	<path class="st0" d="M96.1,22.9c-0.9,0-1.7,0.8-1.7,1.7c0,0.9,0.8,1.7,1.7,1.7c0.9,0,1.7-0.8,1.7-1.7C97.8,23.7,97,22.9,96.1,22.9z
		"/>
	<path class="st0" d="M90.6,16.2c0-0.5-0.4-1-1-1c-0.5,0-1,0.4-1,1s0.4,1,1,1C90.2,17.1,90.6,16.7,90.6,16.2z"/>
	<path class="st0" d="M106,7.2c0,0.5,0.4,1,1,1c0.5,0,1-0.4,1-1s-0.4-1-1-1C106.4,6.3,106,6.7,106,7.2z"/>
	<path class="st0" d="M110.2,10.4c0.4,0,0.7-0.3,0.7-0.7S110.6,9,110.2,9c-0.4,0-0.7,0.3-0.7,0.7C109.5,10.1,109.8,10.4,110.2,10.4z
		"/>
	<path class="st0" d="M92.5,16.7c0.4,0,0.7-0.3,0.7-0.7c0-0.4-0.3-0.7-0.7-0.7c-0.4,0-0.7,0.3-0.7,0.7
		C91.8,16.4,92.2,16.7,92.5,16.7z"/>
	<path class="st0" d="M103.4,5.2c0.4,0,0.7-0.3,0.7-0.7c0-0.4-0.3-0.7-0.7-0.7c-0.4,0-0.7,0.3-0.7,0.7C102.7,4.9,103,5.2,103.4,5.2z
		"/>
	<circle class="st0" cx="100.7" cy="4.8" r="0.7"/>
	<path class="st0" d="M92.8,23.2c0-0.4-0.3-0.7-0.7-0.7c-0.4,0-0.7,0.3-0.7,0.7c0,0.4,0.3,0.7,0.7,0.7
		C92.5,23.9,92.8,23.6,92.8,23.2z"/>
	<path class="st0" d="M98.4,20.2c-0.4,0-0.7,0.3-0.7,0.7c0,0.4,0.3,0.7,0.7,0.7c0.4,0,0.7-0.3,0.7-0.7S98.8,20.2,98.4,20.2z"/>
	<path class="st0" d="M98,14.5c0.4,0,0.7-0.3,0.7-0.7s-0.3-0.7-0.7-0.7c-0.4,0-0.7,0.3-0.7,0.7C97.3,14.2,97.6,14.5,98,14.5z"/>
	<path class="st0" d="M94.7,20.4c0,0.5,0.4,1,1,1c0.5,0,1-0.4,1-1s-0.4-1-1-1C95.1,19.5,94.7,19.9,94.7,20.4z"/>
	<path class="st0" d="M112.4,17c0.5,0,1-0.4,1-1s-0.4-1-1-1c-0.5,0-1,0.4-1,1S111.8,17,112.4,17z"/>
	<path class="st0" d="M95.2,15.6c-0.5,0-1,0.4-1,1s0.4,1,1,1c0.5,0,1-0.4,1-1S95.7,15.6,95.2,15.6z"/>
	<path class="st0" d="M109.7,18.9c-0.5,0-1,0.4-1,1s0.4,1,1,1c0.5,0,1-0.4,1-1S110.2,18.9,109.7,18.9z"/>
	<path class="st0" d="M89.9,12.3c0.5,0,1-0.4,1-1s-0.4-1-1-1c-0.5,0-1,0.4-1,1S89.4,12.3,89.9,12.3z"/>
	<path class="st0" d="M90.5,18.8c-0.5,0-1,0.4-1,1s0.4,1,1,1c0.5,0,1-0.4,1-1S91.1,18.8,90.5,18.8z"/>
	<path class="st0" d="M107.2,13.7c0,0.7,0.6,1.3,1.3,1.3c0.7,0,1.3-0.6,1.3-1.3s-0.6-1.3-1.3-1.3S107.2,13,107.2,13.7z"/>
	<path class="st0" d="M106.3,5.2c0.5,0,1-0.4,1-1s-0.4-1-1-1c-0.5,0-1,0.4-1,1S105.8,5.2,106.3,5.2z"/>
	<path class="st0" d="M106.4,10.2c0,0.5,0.4,1,1,1c0.5,0,1-0.4,1-1c0-0.5-0.4-1-1-1C106.8,9.3,106.4,9.7,106.4,10.2z"/>
	<path class="st0" d="M106.7,23c-0.5,0-1,0.4-1,1s0.4,1,1,1c0.5,0,1-0.4,1-1S107.2,23,106.7,23z"/>
	<path class="st0" d="M100.4,16.1c0,1.6,1.3,2.9,2.9,2.9s2.9-1.3,2.9-2.9s-1.3-2.9-2.9-2.9C101.7,13.2,100.4,14.5,100.4,16.1z"/>
	<path class="st0" d="M71.4,13.4c-1.1,0-2,0.9-2,2s0.9,2,2,2s2-0.9,2-2S72.6,13.4,71.4,13.4z"/>
	<path class="st0" d="M56,24.7c0,0.8,0.7,1.5,1.5,1.5s1.5-0.7,1.5-1.5s-0.7-1.5-1.5-1.5C56.7,23.2,56,23.9,56,24.7z"/>
	<path class="st0" d="M72.3,4.6c-0.9,0-1.7,0.8-1.7,1.7S71.3,8,72.3,8S74,7.2,74,6.3S73.2,4.6,72.3,4.6z"/>
	<path class="st0" d="M60.4,22.4c0,0.5,0.4,1,1,1c0.5,0,1-0.4,1-1s-0.4-1-1-1C60.8,21.5,60.4,21.9,60.4,22.4z"/>
	<path class="st0" d="M43.6,20.8c-0.5,0-1,0.4-1,1s0.4,1,1,1c0.5,0,1-0.4,1-1S44.1,20.8,43.6,20.8z"/>
	<path class="st0" d="M42.8,10.7c0.4,0,0.7-0.3,0.7-0.7s-0.3-0.7-0.7-0.7s-0.7,0.4-0.7,0.7S42.4,10.7,42.8,10.7z"/>
	<path class="st0" d="M50.3,25.6c-0.4,0-0.7,0.3-0.7,0.7c0,0.4,0.3,0.7,0.7,0.7s0.7-0.3,0.7-0.7S50.7,25.6,50.3,25.6z"/>
	<path class="st0" d="M60,19.5c0.5,0,1-0.4,1-1s-0.4-1-1-1c-0.5,0-1,0.4-1,1S59.5,19.5,60,19.5z"/>
	<path class="st0" d="M46.1,24.6c-0.5,0-1,0.4-1,1s0.4,1,1,1c0.5,0,1-0.4,1-1S46.7,24.6,46.1,24.6z"/>
	<path class="st0" d="M48.5,15.9c0.5,0,1-0.4,1-1c0-0.5-0.4-1-1-1c-0.5,0-1,0.4-1,1C47.6,15.4,48,15.9,48.5,15.9z"/>
	<path class="st0" d="M53.4,15.7c0.5,0,1-0.4,1-1s-0.4-1-1-1c-0.5,0-1,0.4-1,1S52.9,15.7,53.4,15.7z"/>
	<path class="st0" d="M43,18.3c0.7,0,1.2-0.5,1.2-1.2s-0.5-1.2-1.2-1.2s-1.2,0.5-1.2,1.2C41.8,17.7,42.4,18.3,43,18.3z"/>
	<path class="st0" d="M42.6,13.2c0,0.5,0.4,1,1,1c0.5,0,1-0.4,1-1s-0.4-1-1-1S42.6,12.7,42.6,13.2z"/>
	<circle class="st0" cx="53.2" cy="25.5" r="1"/>
	<path class="st0" d="M71.5,21.6c0-0.5-0.4-1-1-1c-0.5,0-1,0.4-1,1c0,0.5,0.4,1,1,1C71,22.5,71.5,22.1,71.5,21.6z"/>
	<path class="st0" d="M43.9,5.2c-0.7,0-1.3,0.6-1.3,1.3s0.6,1.3,1.3,1.3s1.3-0.6,1.3-1.3S44.6,5.2,43.9,5.2z"/>
	<path class="st0" d="M42.6,25.2c-0.5,0-1,0.4-1,1s0.4,1,1,1c0.5,0,1-0.4,1-1S43.1,25.2,42.6,25.2z"/>
	<path class="st0" d="M72.4,11.2c0-0.5-0.4-1-1-1c-0.5,0-1,0.4-1,1s0.4,1,1,1C72,12.1,72.4,11.7,72.4,11.2z"/>
	<path class="st0" d="M57,16.3c0.5,0,1-0.4,1-1c0-0.5-0.4-1-1-1s-1,0.4-1,1C56,15.8,56.4,16.3,57,16.3z"/>
	<path class="st0" d="M71.9,23.8c-0.5,0-1,0.4-1,1s0.4,1,1,1c0.5,0,1-0.4,1-1S72.5,23.8,71.9,23.8z"/>
	<path class="st0" d="M15.5,14.4c0.9,0,1.7-0.8,1.7-1.7S16.5,11,15.5,11c-0.9,0-1.7,0.8-1.7,1.7S14.6,14.4,15.5,14.4z"/>
	<path class="st0" d="M14.1,17.4c0.5,0,1-0.4,1-1c0-0.5-0.4-1-1-1c-0.5,0-1,0.4-1,1S13.6,17.4,14.1,17.4z"/>
	<path class="st0" d="M23.8,14.9c0.4,0,0.7-0.3,0.7-0.7s-0.3-0.7-0.7-0.7s-0.7,0.4-0.7,0.7C23.1,14.6,23.4,14.9,23.8,14.9z"/>
	<path class="st0" d="M20.4,22.2c-0.4,0-0.7,0.3-0.7,0.7c0,0.4,0.3,0.7,0.7,0.7c0.4,0,0.7-0.3,0.7-0.7S20.8,22.2,20.4,22.2z"/>
	<path class="st0" d="M15.4,9.6c0.3,0,0.7-0.3,0.7-0.6c0-0.4-0.3-0.7-0.7-0.7S14.7,8.6,14.7,9C14.7,9.3,15,9.6,15.4,9.6z"/>
	<circle class="st0" cx="17.3" cy="16.3" r="0.7"/>
	<path class="st0" d="M19.5,13.8c0.4,0,0.7-0.3,0.7-0.7s-0.3-0.7-0.7-0.7c-0.4,0-0.7,0.3-0.7,0.7S19.1,13.8,19.5,13.8z"/>
	<circle class="st0" cx="7.7" cy="14.1" r="0.7"/>
	<path class="st0" d="M19.2,16.1c0,0.5,0.4,1,1,1c0.5,0,1-0.4,1-1s-0.4-1-1-1C19.6,15.2,19.2,15.6,19.2,16.1z"/>
	<path class="st0" d="M12.5,22.8c0.7,0,1.2-0.5,1.2-1.2s-0.5-1.2-1.2-1.2s-1.2,0.5-1.2,1.2C11.3,22.2,11.9,22.8,12.5,22.8z"/>
	<path class="st0" d="M10.6,16.9c0.5,0,1-0.4,1-1s-0.4-1-1-1c-0.5,0-1,0.4-1,1S10.1,16.9,10.6,16.9z"/>
	<path class="st0" d="M16.3,19.6c0,0.7,0.6,1.3,1.3,1.3c0.7,0,1.3-0.6,1.3-1.3s-0.6-1.3-1.3-1.3C16.9,18.3,16.3,18.9,16.3,19.6z"/>
</g>
</svg>
