<?xml version="1.0" encoding="utf-8"?>
<!-- Generator: Adobe Illustrator 27.2.0, SVG Export Plug-In . SVG Version: 6.00 Build 0)  -->
<svg version="1.1" id="Layer_1" xmlns="http://www.w3.org/2000/svg" xmlns:xlink="http://www.w3.org/1999/xlink" x="0px" y="0px"
	 viewBox="0 0 151.1 33" style="enable-background:new 0 0 151.1 33;" xml:space="preserve">
<style type="text/css">
	.st0{fill:#B3B3B3;}
</style>
<g>
	<path class="st0" d="M135.3,11.6l11.6,1.1c0.3,0,0.5-0.3,0.4-0.5l-1.2-2.6l4.7-2.2c0.2-0.1,0.3-0.3,0.2-0.5l-2.2-4.7
		c-0.1-0.2-0.3-0.3-0.5-0.2l-4.7,2.2l-1.2-2.6c-0.1-0.3-0.5-0.3-0.6-0.1l-6.7,9.5C134.8,11.3,135,11.6,135.3,11.6z"/>
	<path class="st0" d="M136.9,29l4.1,3.2c0.2,0.1,0.4,0.1,0.5-0.1l3.2-4.1l2.3,1.8c0.2,0.2,0.6,0,0.6-0.2l1.6-11.6
		c0-0.3-0.2-0.5-0.5-0.4l-10.9,4.5c-0.3,0.1-0.3,0.5-0.1,0.6l2.3,1.8l-3.2,4.1C136.7,28.6,136.7,28.9,136.9,29z"/>
	<path class="st0" d="M104.4,11.9c0.1,0.2,0.3,0.2,0.5,0.1l4.1-2.4l1.4,2.3c0.1,0.2,0.5,0.2,0.6,0l5.2-9.4c0.1-0.2,0-0.5-0.3-0.5
		L105,2.2c-0.3,0-0.4,0.3-0.3,0.5l1.4,2.3L102,7.4c-0.2,0.1-0.2,0.3-0.1,0.5L104.4,11.9z"/>
	<path class="st0" d="M100.9,26.8l11,4.2c0.3,0.1,0.6-0.1,0.5-0.4l-0.5-2.9l5.1-0.8c0.2,0,0.3-0.2,0.3-0.4l-0.8-5.1
		c0-0.2-0.2-0.3-0.4-0.3l-5.1,0.7l-0.5-2.9c0-0.3-0.4-0.4-0.6-0.2l-9.1,7.4C100.6,26.3,100.6,26.7,100.9,26.8z"/>
	<path class="st0" d="M66.8,7.7l5,2l-1.1,2.8c-0.1,0.3,0.1,0.6,0.4,0.5l12.1-1.7c0.3,0,0.4-0.4,0.3-0.6L76,1.1
		c-0.2-0.2-0.6-0.2-0.7,0.1L74.2,4l-5-2c-0.2-0.1-0.4,0-0.5,0.2l-2,5C66.5,7.4,66.6,7.6,66.8,7.7z"/>
	<path class="st0" d="M82.3,27l-0.1-4.5c0-0.2-0.2-0.3-0.3-0.3l-4.5,0.1l-0.1-2.5c0-0.3-0.3-0.4-0.5-0.3L68,24.8
		c-0.2,0.1-0.2,0.4,0,0.6l9,4.9c0.2,0.1,0.5,0,0.5-0.3l-0.1-2.5l4.5-0.1C82.1,27.3,82.3,27.1,82.3,27z"/>
	<path class="st0" d="M43.7,13.9c0.2,0.2,0.5,0.1,0.5-0.2L46,3.9c0-0.2-0.2-0.4-0.4-0.4l-2.3,0.8l-1.5-4.1C41.7,0,41.6-0.1,41.4,0
		l-4.2,1.5C37,1.6,36.9,1.7,37,1.9L38.5,6l-2.3,0.8c-0.2,0.1-0.3,0.4-0.1,0.5L43.7,13.9z"/>
	<path class="st0" d="M40.3,30.3c0.2,0.2,0.5,0.2,0.6-0.1l1.1-2.6l4.6,1.9c0.2,0.1,0.4,0,0.5-0.2l1.9-4.7c0.1-0.2,0-0.4-0.2-0.5
		l-4.6-1.9l1.1-2.6c0.1-0.3-0.1-0.5-0.4-0.5l-11.4,1.7c-0.3,0-0.4,0.4-0.2,0.6L40.3,30.3z"/>
	<path class="st0" d="M0.5,13.7L12,11.2c0.3-0.1,0.4-0.4,0.2-0.6l-2-2.2l3.9-3.5c0.2-0.1,0.2-0.4,0-0.5l-3.5-3.9
		c-0.1-0.2-0.4-0.2-0.5,0L6.3,4l-2-2.2C4.1,1.6,3.7,1.7,3.7,1.9L0,13.2C-0.1,13.5,0.2,13.7,0.5,13.7z"/>
	<path class="st0" d="M10.6,17.6l-5-0.9c-0.2,0-0.4,0.1-0.4,0.3l-0.9,4.9l-2.8-0.5c-0.3-0.1-0.5,0.2-0.4,0.5L5,32.7
		C5.1,33,5.4,33,5.6,32.8l7.4-8.7c0.2-0.2,0.1-0.5-0.2-0.6L10,23l0.9-4.9C11,17.9,10.8,17.7,10.6,17.6z"/>
</g>
</svg>
