<?xml version="1.0" encoding="utf-8"?>
<!-- Generator: Adobe Illustrator 27.2.0, SVG Export Plug-In . SVG Version: 6.00 Build 0)  -->
<svg version="1.1" id="Layer_1" xmlns="http://www.w3.org/2000/svg" xmlns:xlink="http://www.w3.org/1999/xlink" x="0px" y="0px"
	 viewBox="0 0 70 70" style="enable-background:new 0 0 70 70;" xml:space="preserve">
<style type="text/css">
	.st0{fill:#FFFFFF;}
</style>
<g>
	<path class="st0" d="M68.1,0H1.9C0.9,0,0,0.9,0,1.9v66.2C0,69.1,0.9,70,1.9,70h66.2c1.1,0,1.9-0.9,1.9-1.9V1.9
		C70,0.9,69.1,0,68.1,0z M66.2,66.2H3.8V3.8h62.4V66.2z"/>
	<rect x="8.6" y="46.3" class="st0" width="33.9" height="15"/>
	<rect x="46.3" y="46.3" class="st0" width="15" height="15"/>
	<rect x="46.3" y="27.5" class="st0" width="15" height="15"/>
	<rect x="27.5" y="27.5" class="st0" width="15" height="15"/>
	<rect x="8.7" y="8.6" class="st0" width="15" height="15"/>
	<rect x="8.7" y="27.5" class="st0" width="15" height="15"/>
	<rect x="27.5" y="8.6" class="st0" width="33.9" height="15"/>
</g>
</svg>
