<?xml version="1.0" encoding="utf-8"?>
<!-- Generator: Adobe Illustrator 27.2.0, SVG Export Plug-In . SVG Version: 6.00 Build 0)  -->
<svg version="1.1" id="Layer_1" xmlns="http://www.w3.org/2000/svg" xmlns:xlink="http://www.w3.org/1999/xlink" x="0px" y="0px"
	 viewBox="0 0 1000 1000" style="enable-background:new 0 0 1000 1000;" xml:space="preserve">
<style type="text/css">
	.st0{fill:#FFFFFF;}
</style>
<rect class="st0" width="1000" height="1000"/>
<g>
	<path d="M914.6,60H84.4c-13.2,0-23.9,10.7-23.9,23.9v830.1c0,13.2,10.7,23.9,23.9,23.9h830.1c13.2,0,23.9-10.7,23.9-23.9V83.9
		C938.5,70.7,927.8,60,914.6,60z M890.6,890.1H108.4V107.9h782.2V890.1z"/>
	<rect x="168.9" y="640.7" width="424.8" height="188.3"/>
	<rect x="641.6" y="640.7" width="188.3" height="188.3"/>
	<rect x="641.6" y="404.6" width="188.3" height="188.3"/>
	<rect x="405.4" y="404.6" width="188.3" height="188.3"/>
	<rect x="169.2" y="168.4" width="188.3" height="188.3"/>
	<rect x="169.2" y="404.6" width="188.3" height="188.3"/>
	<rect x="405.4" y="168.4" width="424.8" height="188.3"/>
</g>
</svg>
