<?xml version="1.0" encoding="UTF-8"?>
<svg id="Layer_1" xmlns="http://www.w3.org/2000/svg" version="1.1" viewBox="0 0 506.6 50.9">
  <!-- Generator: Adobe Illustrator 29.6.1, SVG Export Plug-In . SVG Version: 2.1.1 Build 9)  -->
  <path d="M77,16.6c.1-.8.9-.9,1.5-1,1.8-.2,9.1-.3,10.7,0,2.5.5.5,3.6,1.8,5,5.2-7.2,19.1-7.9,23.7.3,1.4-1,2.1-2.2,3.6-3.2,5.4-3.6,15.1-4,19.9.7s3.5,5.1,3.5,7.1v25h-14.1c-.4-6.7.5-14.1,0-20.8-.3-4.1-2.2-6.4-6.6-5.7s-2.5.8-3.2,1.6-1.3,2.5-1.3,2.7v22.2h-14.4v-22.2c0-6.2-10.7-5.5-10.7,0v22.2h-14.4V16.6Z" fill="#fff"/>
  <path d="M330.8,40.7l7.1-24.7c4.5,0,9.3-.8,13.7-.4s1.2,0,1.7.6l6.5,24.6c.5.2.8-1.1.9-1.4.2-.7.1-1.5.3-2.2l5.5-20.8c.4-.4,3-.6,3.8-.7,1.4,0,7.4-.2,8.3.2s.5.3.6.5l-10.7,34.2h-17.2s-5.8-21.7-5.8-21.7l-.9.5-5.7,21.2h-17.1c0,0-11.1-34.7-11.1-34.7.4-.5,10.9-.5,12.3-.3s1.5.1,2,.6l6.1,24.6Z" fill="#fff"/>
  <path d="M235.3,50.6h-13.6v-2.8c-.1,0-3.8,2.8-3.8,2.8h-17.9c-9.4-7.1-9.2-27.6,1-33.5,4.1-2.4,10.8-2.7,15.3-1s3.2,2.6,4.9,3.5V1c.3-.4.5-.6,1-.7,1.8-.3,5.5,0,7.6,0s3.7-.8,5.5.1v50.1ZM210,43.1c2.8,2.8,8.5,1.9,10.3-1.8s1.5-9.5.8-12.3c-1-4.2-3.7-6-8-5.6s-5,4.2-5.2,7.2-.4,9.9,2.1,12.5Z" fill="#fff"/>
  <path d="M464.7.8c.4-1.3,9.6-.5,11.2-.4s2.4-.9,3.4.6v29.1c0,0,.7-.4.8-.6,3-2.8,5.9-7.6,8.7-10.8s1.8-2.8,4.1-3,9-.3,11.6,0,.7,0,.9.3v1.1s-11.8,14.2-11.8,14.2l13,19.4h-16.2c-2.4-3.7-5-7.3-7.3-11s-1.6-3-2.5-4.3-.8-1.4-1.4-1.3v16.7h-14.4V.8Z" fill="#fff"/>
  <path d="M397.6,43.7c2.2,2.6,7.9,2.4,10-.3s.6-2.8,1.8-3.2h12.3c.8,4.5-3.1,8.6-6.9,10.3h-25.2c-11.5-6.8-10.4-27.4,1.5-33.3,5.3-2.6,17-2.7,22.3-.2s8.7,9.5,9,15.6c0,1.8.7,5.3-1.8,5h-24.3c-1.4.5.6,5.2,1.3,6.1ZM396.1,29.4h12c1.4-2.9-1.4-6.5-4.5-6.8-4.8-.5-7.7,2.1-7.5,6.8Z" fill="#fff"/>
  <path d="M305.4,50.6h-13.8l-.4-2.5-3.4,2.5c-5.2-.6-12.3.8-17.2,0-1.8-.3-3.9-4.4-4.1-6.1-.6-5.1.2-9.3,4.7-12.2,2-1.3,7-2.7,9.3-3.1s10.4,0,10.5-.8c.4-4.7-.9-6.7-5.8-6s-2.5,2.6-4.3,4.7h-11.8c-1.9-.6.3-5.9,1.3-7.1,5.3-6.4,26-6.7,31.6-.9s2.7,5.9,2.8,9.3c.4,7.4-.7,14.9.6,22.2ZM288.1,35.4c-3.9.3-8.8,1.8-7.8,6.8s6.2,3.4,8.6,1.3,2-3.7,2.1-5.8-.2-2.5-2.9-2.3Z" fill="#fff"/>
  <path d="M183.2,20.2c3.9,4.2,5.1,11.6,4.3,17h-24.7c-1.7.4-.3,4.8.4,5.9,2.3,3.3,7.7,3.3,10,.1s1-2.8,1.8-3h11.5c1.4.4.6,2.8.2,3.8-.8,2.3-4.1,6.3-6.6,6.6-7,.9-15.7-.7-22.9,0-11.7-4.8-11.8-23.9-2.8-31.4s22.7-5.7,28.9,1ZM162.5,29.4h11c1.4-1.7-.6-5.6-2.3-6.4-4.5-2-9,.8-9.1,5.7l.4.7Z" fill="#fff"/>
  <path d="M456.6,27.4h-4.1c-2.9,0-6.5,2-7.6,4.8s-.7,2.8-.7,3.5v14.8h-14.1V16.3c0,0,.6-.6.6-.6.5-.3,10.3-.3,11.5-.1s1.1.2,1.5.7v4.7c.7.2.5-.1.6-.4,2.6-3.4,4.2-5,8.8-5.5s3.6-.6,3.8,1.8.2,10.6-.3,10.6Z" fill="#fff"/>
  <path d="M40.6,50.6c.6-2.6,1.6-5.2,2.2-7.8,3-13.4.7-25.1-3.5-37.8-.3-.9-1.8-3.9-1.5-4.5,1.2-.8,2.4,0,3.5,0s5.2-.9,6.1.2c4.7,11.3,9.4,22.9,7.5,35.5s-2.6,10.1-4.3,14.6h-10Z" fill="#fff"/>
  <path d="M.1,12.3c0-.1.3-.7.5-.7l8.3,1.7c0-.4,0-.7-.3-1-1-1.6-4.2-4-5-5.5s-.2-.5,0-.8,6.1-3.7,6.7-4,.5-.3.9-.2c1,.3,2.4,6.5,2.8,7.7l.8.5,2.2-7.7c.7-1,6.1,2.3,7,2.9s1.2.6,1.3,1.3c.2,1.6-5.1,4.8-5.1,6.9,1.6-.2,7-2.3,8.2-1.6s.8,8.3.1,8.9c-1.1,1-5.9-1.1-7.5-1.3s-.7-.3-1,.2c-.3.5,4.6,4.8,5,5.5s.4,1.3-.3,2-5.2,3.1-5.7,3.3-1.4.5-1.9-.2c-.7-1.1-2-7.5-2.3-7.7-1.4.9-2.4,8.2-3.5,8.4l-7.8-4.3c0-.4,0-.7.3-1.1.9-1.5,4.2-3.7,5.2-5.5l-.3-.6c-1.7.2-6.7,2.2-8,1.5s-.6-.5-.6-.6c0-2.2-.3-5.9,0-7.9Z" fill="#fff"/>
  <path d="M259.3,50.6h-14.4c-.1-7.9-.5-15.7-.3-23.6s.3-1.3.3-2c0-2.4-.4-6.4,0-8.5s.1-.5.4-.7h13.3l.7,34.7Z" fill="#fff"/>
  <rect x="244.9" y=".3" width="14.1" height="10.2" fill="#fff"/>
</svg>