<?xml version="1.0" encoding="utf-8"?>
<!-- Generator: Adobe Illustrator 27.2.0, SVG Export Plug-In . SVG Version: 6.00 Build 0)  -->
<svg version="1.1" id="Layer_1" xmlns="http://www.w3.org/2000/svg" xmlns:xlink="http://www.w3.org/1999/xlink" x="0px" y="0px"
	 viewBox="0 0 70 70" style="enable-background:new 0 0 70 70;" xml:space="preserve">
<g>
	<path d="M68.5,13.8h-67c-0.8,0-1.5,0.7-1.5,1.5v5.1c0,0.3,0.2,0.6,0.4,0.8l33.8,20.5c0.5,0.3,1.1,0.3,1.6,0l33.8-20.5
		c0.3-0.2,0.4-0.5,0.4-0.8v-5.1C70,14.5,69.3,13.8,68.5,13.8z"/>
	<path d="M69.5,24.7c-0.3-0.2-0.6-0.2-0.9,0L46,38.4c-0.3,0.2-0.4,0.5-0.4,0.8s0.2,0.6,0.4,0.8l22.6,13.7c0.3,0.2,0.6,0.2,0.9,0
		c0.3-0.2,0.5-0.5,0.5-0.8V25.5C70,25.2,69.8,24.9,69.5,24.7z"/>
	<path d="M24.4,39.2c0-0.3-0.2-0.6-0.4-0.8L1.4,24.7c-0.3-0.2-0.6-0.2-0.9,0C0.2,24.9,0,25.2,0,25.5v27.4c0,0.3,0.2,0.6,0.5,0.8
		c0.3,0.2,0.6,0.2,0.9,0L24,40C24.2,39.8,24.4,39.5,24.4,39.2z"/>
	<path d="M42.8,41c-0.3-0.2-0.6-0.2-0.9,0l-6.2,3.8c-0.2,0.1-0.4,0.2-0.7,0.2c-0.2,0-0.5-0.1-0.7-0.2L28.1,41
		c-0.3-0.2-0.6-0.2-0.9,0L3.5,55.3c-0.2,0.1-0.3,0.3-0.2,0.5c0.1,0.2,0.2,0.3,0.4,0.3h62.6c0.2,0,0.4-0.1,0.4-0.3
		c0.1-0.2,0-0.4-0.2-0.5L42.8,41z"/>
</g>
</svg>
