<?xml version="1.0" encoding="utf-8"?>
<!-- Generator: Adobe Illustrator 27.2.0, SVG Export Plug-In . SVG Version: 6.00 Build 0)  -->
<svg version="1.1" id="Livello_1" xmlns="http://www.w3.org/2000/svg" xmlns:xlink="http://www.w3.org/1999/xlink" x="0px" y="0px"
	 viewBox="0 0 240.1 240.1" style="enable-background:new 0 0 240.1 240.1;" xml:space="preserve">
<style type="text/css">
	.st0{fill-rule:evenodd;clip-rule:evenodd;}
</style>
<path class="st0" d="M120.1,0C53.8,0,0,53.8,0,120.1s53.8,120.1,120.1,120.1s120.1-53.8,120.1-120.1S186.4,0,120.1,0z M188.9,72.6
	c-2.2,22.9-11.5,78.3-16.4,103.8c-2,10.8-6,14.4-9.9,14.8c-8.4,0.7-14.8-5.5-22.9-10.8c-12.7-8.3-19.8-13.5-32.2-21.6
	c-14.3-9.4-5.1-14.6,3.1-23c2.2-2.2,39.1-35.8,39.8-38.8c0.1-0.4,0.1-1.8-0.7-2.5c-0.8-0.7-2-0.5-3-0.2
	c-1.3,0.2-21.5,13.7-60.9,40.3c-5.8,4-10.9,5.9-15.6,5.8c-5.2-0.1-15-2.9-22.5-5.3c-9-2.9-16.2-4.4-15.6-9.5c0.4-2.6,4-5.3,10.7-8.1
	C85,99,113,86.9,127.1,81c40-16.7,48.5-19.6,53.9-19.7c1.2,0,3.8,0.2,5.7,1.7c1.4,1.2,1.8,2.8,2,4S189.1,70.6,188.9,72.6z"/>
</svg>
